<svg xmlns="http://www.w3.org/2000/svg" xmlns:xlink="http://www.w3.org/1999/xlink" version="1.1" width="219.62pt" height="86.883pt" viewBox="0 0 219.62 86.883">
<defs>
<clipPath id="clip_0">
<path transform="matrix(1,0,0,-1,0,86.935009)" d="M0 0H219.62V321.84H0Z"/>
</clipPath>
</defs>
<g>
<g>
<g clip-path="url(#clip_0)">
<path transform="matrix(1,0,0,1,0,-234.905)" d="M0 0H219.621V87.852H0Z" fill="#ffffff"/>
<path transform="matrix(1,0,0,1,0,-234.905)" d="M16.266 18.465C16.266 18.465 29.074 15.789 39.832 15.789 50.594 15.789 63.977 18.465 63.977 18.465 63.977 18.465 63.977 54.258 63.977 59.629 63.977 62.984 61.922 64.785 61.191 65.312 59.551 66.496 52.211 72.062 40.141 72.062 28.777 72.062 21.844 67.16 19.094 65.23 17.855 64.359 16.266 62.461 16.266 59.629 16.266 55.273 16.266 18.465 16.266 18.465" fill="#fff200" fill-rule="evenodd"/>
<path transform="matrix(1,0,0,1,0,-234.905)" d="M60.41 66.078C50.68 72.391 40.574 72.047 40.574 72.047 40.574 72.047 40.297 70.758 40.406 68.535 40.52 66.312 41.73 66.941 42.609 65.184 42.926 64.547 43.203 64.105 43.699 62.609 43.719 62.547 43.117 51.898 42.965 47.379 42.883 44.945 42.426 40.879 41.891 36.93 41.574 34.586 40.859 32.73 40.531 30.508 40.055 27.297 39.504 23.676 39.504 23.676 39.105 24.699 38.539 28.523 37.969 32.84 37.695 34.91 37.422 37.098 37.164 39.141 36.625 43.465 35.273 55.043 35.07 55.672 34.762 56.625 34.727 55.422 34.727 55.422 34.727 55.422 35.527 43.273 35.77 37.949 35.887 35.344 36.086 32.484 36.406 29.738 36.652 27.676 36.969 25.68 37.379 23.906 37.379 23.906 38.77 19.703 39.211 19.621 39.656 19.535 41.258 22.27 41.801 24.699 43.027 30.188 43.754 30.891 44.688 36.652 45.578 42.133 46.391 46.715 46.496 47.465 46.898 50.184 46.699 58.66 46.016 62.039 45.852 62.961 45.801 63.301 45.199 63.91 43.789 65.336 42.785 67.035 42.785 68.148 42.785 69.262 42.602 69.238 42.863 69.883 42.863 69.883 44.727 72.668 55.414 66.297 55.414 66.297 58.758 64.547 58.758 60.684V21.613C58.758 21.613 48.156 18.027 39.992 18.027 31.828 18.027 21.602 21.605 21.602 21.605V60.508C21.602 62.902 21.953 67.391 25.371 68.926 25.371 68.926 16.266 65.809 16.266 60.461V18.301C16.266 18.301 30.164 15.742 39.996 15.742 49.832 15.742 63.977 18.301 63.977 18.301 63.977 18.301 63.977 56.875 63.977 60.512 63.977 64.145 60.41 66.078 60.41 66.078" fill="#000000"/>
<path transform="matrix(1,0,0,1,0,-234.905)" d="M192.5 33.426C191.527 33.969 190.223 34.238 188.582 34.238 186.926 34.238 185.641 33.738 184.727 32.738 183.809 31.734 183.352 30.34 183.352 28.547 183.352 26.738 183.809 25.301 184.727 24.23 185.617 23.199 186.797 22.688 188.273 22.688 188.926 22.688 189.488 22.758 189.965 22.902V18.363H192.5ZM189.965 32.359V24.273C189.629 24.176 189.254 24.125 188.836 24.125 186.863 24.125 185.875 25.551 185.875 28.398 185.875 31.207 186.797 32.609 188.648 32.609 189.258 32.609 189.695 32.527 189.965 32.359" fill="#000000"/>
<path transform="matrix(1,0,0,1,0,-234.905)" d="M204.098 28.34 197.215 29.336C197.426 31.422 198.449 32.461 200.281 32.461 201.367 32.461 202.312 32.258 203.117 31.848L203.723 33.449C202.762 33.977 201.527 34.238 200.012 34.238 198.398 34.238 197.129 33.734 196.195 32.719 195.266 31.703 194.797 30.262 194.797 28.383 194.797 26.562 195.227 25.145 196.078 24.121 196.934 23.102 198.105 22.59 199.594 22.59 201.094 22.59 202.234 23.078 203.012 24.059 203.793 25.039 204.152 26.465 204.098 28.34ZM201.723 27.344C201.723 25.215 200.984 24.152 199.508 24.152 198.727 24.152 198.129 24.465 197.715 25.09 197.254 25.773 197.035 26.758 197.066 28.051L201.723 27.344" fill="#000000"/>
<path transform="matrix(1,0,0,1,0,-234.905)" d="M72.23 39.352H76.218V64.008H72.23Z" fill="#000000"/>
<path transform="matrix(1,0,0,1,0,-234.905)" d="M94.617 55.215C94.617 57.938 94.016 60.105 92.82 61.715 91.512 63.457 89.668 64.328 87.297 64.328 84.922 64.328 83.082 63.457 81.773 61.715 80.574 60.105 79.977 57.938 79.977 55.215 79.977 52.473 80.574 50.293 81.773 48.684 83.082 46.941 84.922 46.07 87.297 46.07 89.691 46.07 91.531 46.941 92.82 48.684 94.016 50.293 94.617 52.473 94.617 55.215ZM90.66 55.184C90.66 50.785 89.539 48.582 87.297 48.582 85.051 48.582 83.93 50.785 83.93 55.184 83.93 59.477 85.051 61.621 87.297 61.621 89.539 61.621 90.66 59.477 90.66 55.184" fill="#000000"/>
<path transform="matrix(1,0,0,1,0,-234.905)" d="M108.285 58.938C108.285 60.422 107.711 61.684 106.555 62.73 105.398 63.773 103.887 64.297 102.012 64.297 100.004 64.297 98.383 63.871 97.141 63.023L98.184 60.48C99.035 61.156 100.137 61.492 101.488 61.492 102.297 61.492 102.949 61.262 103.449 60.789 103.949 60.324 104.203 59.73 104.203 59.012 104.203 58.27 104.008 57.688 103.613 57.262 103.223 56.836 102.559 56.449 101.621 56.102 98.941 55.078 97.602 53.434 97.602 51.168 97.602 49.73 98.121 48.52 99.156 47.539 100.188 46.559 101.531 46.07 103.188 46.07 104.973 46.07 106.496 46.484 107.758 47.312L106.781 49.633C105.977 48.977 105.039 48.648 103.977 48.648 103.191 48.648 102.578 48.871 102.133 49.316 101.688 49.766 101.465 50.316 101.465 50.969 101.465 52.121 102.336 53.047 104.074 53.742 106.883 54.879 108.285 56.609 108.285 58.938" fill="#000000"/>
<path transform="matrix(1,0,0,1,0,-234.905)" d="M137.703 64.008H133.051L131.168 57.723H123.285L121.332 64.008H117.281L125.379 39.566H129.641ZM130.527 55.094 128.008 46.488C127.652 45.277 127.438 44.293 127.367 43.535H127.297C127.18 44.176 126.953 45.16 126.621 46.488L123.992 55.094H130.527" fill="#000000"/>
<path transform="matrix(1,0,0,1,0,-234.905)" d="M154.102 64.008H150.113V51.523C150.113 49.562 149.059 48.582 146.949 48.582 145.945 48.582 145.031 48.746 144.203 49.074V64.008H140.215V47.344C142.023 46.492 144.32 46.07 147.109 46.07 149.57 46.07 151.391 46.613 152.566 47.703 153.59 48.617 154.102 49.871 154.102 51.461V64.008" fill="#000000"/>
<path transform="matrix(1,0,0,1,0,-234.905)" d="M172.078 63.055C170.555 63.902 168.504 64.328 165.934 64.328 163.34 64.328 161.324 63.547 159.883 61.977 158.445 60.406 157.727 58.219 157.727 55.41 157.727 52.578 158.445 50.324 159.883 48.648 161.281 47.035 163.133 46.227 165.441 46.227 166.465 46.227 167.348 46.34 168.09 46.559V39.434H172.078ZM168.09 61.391V48.715C167.566 48.562 166.977 48.488 166.324 48.488 163.23 48.488 161.684 50.719 161.684 55.184 161.684 59.582 163.133 61.781 166.031 61.781 166.988 61.781 167.676 61.652 168.09 61.391" fill="#000000"/>
<path transform="matrix(1,0,0,1,0,-234.905)" d="M190.227 55.086 179.441 56.656C179.766 59.926 181.367 61.559 184.242 61.559 185.941 61.559 187.426 61.23 188.688 60.578L189.637 63.09C188.133 63.914 186.195 64.328 183.82 64.328 181.293 64.328 179.297 63.531 177.84 61.945 176.379 60.355 175.648 58.09 175.648 55.148 175.648 52.297 176.32 50.07 177.66 48.469 179 46.867 180.836 46.07 183.164 46.07 185.52 46.07 187.305 46.836 188.527 48.371 189.746 49.906 190.312 52.148 190.227 55.086ZM186.492 53.52C186.492 50.188 185.34 48.52 183.027 48.52 181.809 48.52 180.871 49.012 180.219 49.988 179.5 51.059 179.164 52.605 179.207 54.629L186.492 53.52" fill="#000000"/>
<path transform="matrix(1,0,0,1,0,-234.905)" d="M203.93 58.938C203.93 60.422 203.352 61.684 202.195 62.73 201.039 63.773 199.527 64.297 197.652 64.297 195.648 64.297 194.023 63.871 192.781 63.023L193.824 60.48C194.676 61.156 195.777 61.492 197.129 61.492 197.938 61.492 198.59 61.262 199.09 60.789 199.594 60.324 199.844 59.73 199.844 59.012 199.844 58.27 199.648 57.688 199.258 57.262 198.863 56.836 198.199 56.449 197.262 56.102 194.586 55.078 193.242 53.434 193.242 51.168 193.242 49.73 193.762 48.52 194.797 47.539 195.828 46.559 197.176 46.07 198.828 46.07 200.613 46.07 202.137 46.484 203.398 47.312L202.422 49.633C201.617 48.977 200.68 48.648 199.617 48.648 198.836 48.648 198.219 48.871 197.773 49.316 197.328 49.766 197.105 50.316 197.105 50.969 197.105 52.121 197.977 53.047 199.715 53.742 202.523 54.879 203.93 56.609 203.93 58.938" fill="#000000"/>
<path transform="matrix(1,0,0,1,0,-234.905)" d="M93.27 34.07H90.73V26.105C90.73 24.852 90.059 24.227 88.711 24.227 88.07 24.227 87.484 24.332 86.957 24.539V34.07H84.418V23.438C85.574 22.898 87.035 22.625 88.812 22.625 90.383 22.625 91.543 22.973 92.289 23.668 92.945 24.25 93.27 25.051 93.27 26.066V34.07" fill="#000000"/>
<path transform="matrix(1,0,0,1,0,-234.905)" d="M98.746 19.637C98.746 19.984 98.609 20.277 98.34 20.523 98.066 20.766 97.738 20.887 97.348 20.887 96.961 20.887 96.629 20.766 96.355 20.523 96.086 20.277 95.953 19.984 95.953 19.637 95.953 19.285 96.086 18.988 96.355 18.738 96.629 18.488 96.961 18.363 97.348 18.363 97.738 18.363 98.066 18.484 98.34 18.727 98.609 18.973 98.746 19.273 98.746 19.637ZM98.613 34.07H96.074V22.828H98.613V34.07" fill="#000000"/>
<path transform="matrix(1,0,0,1,0,-234.905)" d="M110.188 22.828 106.578 34.07H104.16L100.488 22.828H103.199L105.184 30.086C105.336 30.625 105.426 31.141 105.453 31.625H105.496C105.562 31.223 105.66 30.711 105.785 30.086L107.809 22.828H110.188" fill="#000000"/>
<path transform="matrix(1,0,0,1,0,-234.905)" d="M120.84 28.371 113.957 29.371C114.164 31.453 115.188 32.496 117.02 32.496 118.105 32.496 119.051 32.289 119.855 31.883L120.465 33.484C119.504 34.012 118.266 34.273 116.754 34.273 115.137 34.273 113.867 33.766 112.934 32.754 112.004 31.738 111.535 30.293 111.535 28.418 111.535 26.598 111.965 25.18 112.82 24.156 113.676 23.137 114.844 22.625 116.336 22.625 117.836 22.625 118.973 23.113 119.754 24.094 120.531 25.07 120.891 26.496 120.84 28.371ZM118.465 27.375C118.465 25.25 117.723 24.188 116.246 24.188 115.469 24.188 114.867 24.5 114.449 25.125 113.992 25.805 113.777 26.793 113.805 28.086L118.465 27.375" fill="#000000"/>
<path transform="matrix(1,0,0,1,0,-234.905)" d="M128.562 22.641 128.062 24.496C127.688 24.371 127.297 24.312 126.891 24.312 126.406 24.312 126.004 24.402 125.68 24.582V34.07H123.141V23.434C124.379 22.836 126.188 22.57 128.562 22.641" fill="#000000"/>
<path transform="matrix(1,0,0,1,0,-234.905)" d="M136.668 30.84C136.668 31.785 136.297 32.59 135.562 33.258 134.824 33.926 133.859 34.262 132.664 34.262 131.383 34.262 130.348 33.988 129.555 33.445L130.223 31.82C130.762 32.25 131.465 32.469 132.328 32.469 132.844 32.469 133.262 32.32 133.582 32.02 133.898 31.723 134.059 31.344 134.059 30.883 134.059 30.41 133.934 30.039 133.688 29.77 133.434 29.496 133.012 29.25 132.414 29.027 130.707 28.375 129.852 27.324 129.852 25.879 129.852 24.961 130.18 24.191 130.84 23.562 131.504 22.938 132.359 22.625 133.414 22.625 134.551 22.625 135.523 22.891 136.328 23.414L135.703 24.895C135.191 24.477 134.594 24.27 133.914 24.27 133.414 24.27 133.02 24.41 132.734 24.695 132.453 24.98 132.309 25.332 132.309 25.75 132.309 26.484 132.863 27.078 133.977 27.523 135.77 28.246 136.668 29.352 136.668 30.84" fill="#000000"/>
<path transform="matrix(1,0,0,1,0,-234.905)" d="M141.641 19.637C141.641 19.984 141.504 20.277 141.234 20.523 140.965 20.766 140.633 20.887 140.242 20.887 139.852 20.887 139.523 20.766 139.254 20.523 138.98 20.277 138.844 19.984 138.844 19.637 138.844 19.285 138.98 18.988 139.254 18.738 139.523 18.488 139.852 18.363 140.242 18.363 140.633 18.363 140.965 18.484 141.234 18.727 141.504 18.973 141.641 19.273 141.641 19.637ZM141.508 34.07H138.969V22.828H141.508V34.07" fill="#000000"/>
<path transform="matrix(1,0,0,1,0,-234.905)" d="M153.051 33.461C152.078 34.004 150.773 34.273 149.133 34.273 147.48 34.273 146.191 33.773 145.277 32.773 144.359 31.773 143.902 30.375 143.902 28.578 143.902 26.773 144.359 25.332 145.277 24.266 146.168 23.234 147.348 22.719 148.824 22.719 149.477 22.719 150.039 22.789 150.512 22.934V18.398H153.051ZM150.512 32.395V24.305C150.18 24.211 149.805 24.16 149.387 24.16 147.41 24.16 146.426 25.586 146.426 28.434 146.426 31.242 147.352 32.645 149.199 32.645 149.809 32.645 150.25 32.562 150.512 32.395" fill="#000000"/>
<path transform="matrix(1,0,0,1,0,-234.905)" d="M163.875 33.461C162.859 34.004 161.508 34.273 159.809 34.273 156.754 34.273 155.227 33.137 155.227 30.859 155.227 29.496 155.844 28.477 157.082 27.797 158.055 27.27 159.523 26.906 161.5 26.715V26.109C161.5 24.871 160.754 24.254 159.27 24.254 158.34 24.254 157.402 24.484 156.457 24.938L155.871 23.48C157.039 22.91 158.324 22.625 159.727 22.625 162.492 22.625 163.875 23.918 163.875 26.5ZM161.5 32.551V27.918C160.168 28.086 159.223 28.344 158.672 28.691 157.977 29.121 157.629 29.816 157.629 30.777 157.629 32.164 158.414 32.863 159.98 32.863 160.574 32.863 161.082 32.758 161.5 32.551" fill="#000000"/>
<path transform="matrix(1,0,0,1,0,-234.905)" d="M175.32 33.461C174.348 34.004 173.043 34.273 171.402 34.273 169.75 34.273 168.465 33.773 167.547 32.773 166.629 31.773 166.172 30.375 166.172 28.578 166.172 26.773 166.629 25.332 167.547 24.266 168.438 23.234 169.617 22.719 171.094 22.719 171.746 22.719 172.309 22.789 172.781 22.934V18.398H175.32ZM172.781 32.395V24.305C172.449 24.211 172.074 24.16 171.656 24.16 169.684 24.16 168.695 25.586 168.695 28.434 168.695 31.242 169.621 32.645 171.469 32.645 172.082 32.645 172.52 32.562 172.781 32.395" fill="#000000"/>
<path transform="matrix(1,0,0,1,0,-234.905)" d="M72.199 18.422H74.906V30.508C74.906 31.836 75.617 32.5 77.051 32.5 77.73 32.5 78.348 32.391 78.91 32.168V18.422H81.613V33.34C80.391 33.914 78.832 34.203 76.941 34.203 75.273 34.203 74.039 33.836 73.242 33.098 72.547 32.477 72.199 31.629 72.199 30.551V18.422" fill="#000000"/>
<path transform="matrix(1,0,0,1,0,-234.905)" d="M0 116.996H219.621V204.844H0Z" fill="#ffffff"/>
<path transform="matrix(1,0,0,1,0,-234.905)" d="M60.41 183.074C50.68 189.387 40.574 189.043 40.574 189.043 40.574 189.043 40.297 187.754 40.406 185.531 40.52 183.309 41.73 183.934 42.609 182.176 42.926 181.539 43.203 181.098 43.699 179.605 43.719 179.543 43.117 168.895 42.965 164.371 42.883 161.938 42.426 157.875 41.891 153.922 41.574 151.582 40.859 149.727 40.531 147.504 40.055 144.293 39.504 140.672 39.504 140.672 39.105 141.691 38.539 145.52 37.969 149.836 37.695 151.906 37.422 154.094 37.164 156.137 36.625 160.461 35.273 172.039 35.07 172.668 34.762 173.621 34.727 172.414 34.727 172.414 34.727 172.414 35.527 160.27 35.77 154.941 35.887 152.34 36.086 149.477 36.406 146.73 36.652 144.672 36.969 142.676 37.379 140.898 37.379 140.898 38.77 136.699 39.211 136.617 39.656 136.531 41.258 139.262 41.801 141.695 43.027 147.18 43.754 147.883 44.688 153.648 45.578 159.129 46.391 163.711 46.496 164.461 46.898 167.176 46.699 175.656 46.016 179.035 45.852 179.957 45.801 180.297 45.199 180.902 43.789 182.332 42.785 184.031 42.785 185.145 42.785 186.258 42.602 186.234 42.863 186.879 42.863 186.879 44.727 189.664 55.414 183.289 55.414 183.289 58.758 181.539 58.758 177.68V138.605C58.758 138.605 48.156 135.023 39.992 135.023 31.828 135.023 21.602 138.598 21.602 138.598V177.504C21.602 179.895 21.953 184.387 25.371 185.918 25.371 185.918 16.266 182.801 16.266 177.453V135.297C16.266 135.297 30.164 132.738 39.996 132.738 49.832 132.738 63.977 135.297 63.977 135.297 63.977 135.297 63.977 173.867 63.977 177.504 63.977 181.141 60.41 183.074 60.41 183.074" fill="#000000"/>
<path transform="matrix(1,0,0,1,0,-234.905)" d="M192.5 150.422C191.527 150.965 190.223 151.234 188.582 151.234 186.926 151.234 185.641 150.734 184.727 149.73 183.809 148.73 183.352 147.336 183.352 145.539 183.352 143.734 183.809 142.297 184.727 141.223 185.617 140.195 186.797 139.68 188.273 139.68 188.926 139.68 189.488 139.754 189.965 139.895V135.355H192.5ZM189.965 149.355V141.266C189.629 141.172 189.254 141.121 188.836 141.121 186.863 141.121 185.875 142.547 185.875 145.395 185.875 148.203 186.797 149.605 188.648 149.605 189.258 149.605 189.695 149.523 189.965 149.355" fill="#000000"/>
<path transform="matrix(1,0,0,1,0,-234.905)" d="M204.098 145.332 197.215 146.332C197.426 148.414 198.449 149.457 200.281 149.457 201.367 149.457 202.312 149.25 203.117 148.844L203.723 150.441C202.762 150.969 201.527 151.234 200.012 151.234 198.398 151.234 197.129 150.727 196.195 149.715 195.266 148.699 194.797 147.254 194.797 145.379 194.797 143.559 195.227 142.137 196.078 141.117 196.934 140.098 198.105 139.586 199.594 139.586 201.094 139.586 202.234 140.074 203.012 141.055 203.793 142.031 204.152 143.461 204.098 145.332ZM201.723 144.336C201.723 142.211 200.984 141.148 199.508 141.148 198.727 141.148 198.129 141.461 197.715 142.086 197.254 142.766 197.035 143.754 197.066 145.047L201.723 144.336" fill="#000000"/>
<path transform="matrix(1,0,0,1,0,-234.905)" d="M72.23 156.348H76.218V181.00402H72.23Z" fill="#000000"/>
<path transform="matrix(1,0,0,1,0,-234.905)" d="M94.617 172.211C94.617 174.934 94.016 177.098 92.82 178.711 91.512 180.453 89.668 181.324 87.297 181.324 84.922 181.324 83.082 180.453 81.773 178.711 80.574 177.098 79.977 174.934 79.977 172.211 79.977 169.469 80.574 167.289 81.773 165.676 83.082 163.934 84.922 163.062 87.297 163.062 89.691 163.062 91.531 163.934 92.82 165.676 94.016 167.289 94.617 169.469 94.617 172.211ZM90.66 172.18C90.66 167.777 89.539 165.578 87.297 165.578 85.051 165.578 83.93 167.777 83.93 172.18 83.93 176.469 85.051 178.617 87.297 178.617 89.539 178.617 90.66 176.469 90.66 172.18" fill="#000000"/>
<path transform="matrix(1,0,0,1,0,-234.905)" d="M108.285 175.934C108.285 177.414 107.711 178.68 106.555 179.723 105.398 180.77 103.887 181.293 102.012 181.293 100.004 181.293 98.383 180.867 97.141 180.02L98.184 177.473C99.035 178.152 100.137 178.488 101.488 178.488 102.297 178.488 102.949 178.254 103.449 177.785 103.949 177.316 104.203 176.723 104.203 176.004 104.203 175.266 104.008 174.68 103.613 174.258 103.223 173.832 102.559 173.445 101.621 173.098 98.941 172.07 97.602 170.426 97.602 168.16 97.602 166.723 98.121 165.516 99.156 164.535 100.188 163.555 101.531 163.062 103.188 163.062 104.973 163.062 106.496 163.477 107.758 164.305L106.781 166.625C105.977 165.969 105.039 165.641 103.977 165.641 103.191 165.641 102.578 165.863 102.133 166.312 101.688 166.758 101.465 167.309 101.465 167.961 101.465 169.117 102.336 170.043 104.074 170.738 106.883 171.871 108.285 173.602 108.285 175.934" fill="#000000"/>
<path transform="matrix(1,0,0,1,0,-234.905)" d="M137.703 181.004H133.051L131.168 174.719H123.285L121.332 181.004H117.281L125.379 156.559H129.641ZM130.527 172.09 128.008 163.48C127.652 162.273 127.438 161.289 127.367 160.531H127.297C127.18 161.172 126.953 162.152 126.621 163.48L123.992 172.09H130.527" fill="#000000"/>
<path transform="matrix(1,0,0,1,0,-234.905)" d="M154.102 181.004H150.113V168.52C150.113 166.559 149.059 165.578 146.949 165.578 145.945 165.578 145.031 165.742 144.203 166.066V181.004H140.215V164.34C142.023 163.488 144.32 163.062 147.109 163.062 149.57 163.062 151.391 163.605 152.566 164.695 153.59 165.613 154.102 166.863 154.102 168.457V181.004" fill="#000000"/>
<path transform="matrix(1,0,0,1,0,-234.905)" d="M172.078 180.051C170.555 180.898 168.504 181.324 165.934 181.324 163.34 181.324 161.324 180.539 159.883 178.973 158.445 177.402 157.727 175.215 157.727 172.406 157.727 169.574 158.445 167.32 159.883 165.641 161.281 164.027 163.133 163.223 165.441 163.223 166.465 163.223 167.348 163.332 168.09 163.555V156.426H172.078ZM168.09 178.387V165.711C167.566 165.559 166.977 165.48 166.324 165.48 163.23 165.48 161.684 167.715 161.684 172.18 161.684 176.578 163.133 178.777 166.031 178.777 166.988 178.777 167.676 178.645 168.09 178.387" fill="#000000"/>
<path transform="matrix(1,0,0,1,0,-234.905)" d="M190.227 172.082 179.441 173.652C179.766 176.918 181.367 178.551 184.242 178.551 185.941 178.551 187.426 178.227 188.688 177.574L189.637 180.086C188.133 180.91 186.195 181.324 183.82 181.324 181.293 181.324 179.297 180.527 177.84 178.938 176.379 177.348 175.648 175.086 175.648 172.145 175.648 169.293 176.32 167.066 177.66 165.465 179 163.863 180.836 163.062 183.164 163.062 185.52 163.062 187.305 163.832 188.527 165.367 189.746 166.902 190.312 169.141 190.227 172.082ZM186.492 170.516C186.492 167.18 185.34 165.512 183.027 165.512 181.809 165.512 180.871 166.004 180.219 166.984 179.5 168.051 179.164 169.598 179.207 171.625L186.492 170.516" fill="#000000"/>
<path transform="matrix(1,0,0,1,0,-234.905)" d="M203.93 175.934C203.93 177.414 203.352 178.68 202.195 179.723 201.039 180.77 199.527 181.293 197.652 181.293 195.648 181.293 194.023 180.867 192.781 180.02L193.824 177.473C194.676 178.152 195.777 178.488 197.129 178.488 197.938 178.488 198.59 178.254 199.09 177.785 199.594 177.316 199.844 176.723 199.844 176.004 199.844 175.266 199.648 174.68 199.258 174.258 198.863 173.832 198.199 173.445 197.262 173.098 194.586 172.07 193.242 170.426 193.242 168.16 193.242 166.723 193.762 165.516 194.797 164.535 195.828 163.555 197.176 163.062 198.828 163.062 200.613 163.062 202.137 163.477 203.398 164.305L202.422 166.625C201.617 165.969 200.68 165.641 199.617 165.641 198.836 165.641 198.219 165.863 197.773 166.312 197.328 166.758 197.105 167.309 197.105 167.961 197.105 169.117 197.977 170.043 199.715 170.738 202.523 171.871 203.93 173.602 203.93 175.934" fill="#000000"/>
<path transform="matrix(1,0,0,1,0,-234.905)" d="M93.27 151.062H90.73V143.098C90.73 141.848 90.059 141.223 88.711 141.223 88.07 141.223 87.484 141.324 86.957 141.535V151.062H84.418V140.434C85.574 139.891 87.035 139.621 88.812 139.621 90.383 139.621 91.543 139.969 92.289 140.664 92.945 141.246 93.27 142.047 93.27 143.059V151.062" fill="#000000"/>
<path transform="matrix(1,0,0,1,0,-234.905)" d="M98.746 136.629C98.746 136.977 98.609 137.273 98.34 137.516 98.066 137.762 97.738 137.883 97.348 137.883 96.961 137.883 96.629 137.762 96.355 137.516 96.086 137.273 95.953 136.977 95.953 136.629 95.953 136.281 96.086 135.984 96.355 135.734 96.629 135.484 96.961 135.355 97.348 135.355 97.738 135.355 98.066 135.48 98.34 135.723 98.609 135.969 98.746 136.27 98.746 136.629ZM98.613 151.062H96.074V139.824H98.613V151.062" fill="#000000"/>
<path transform="matrix(1,0,0,1,0,-234.905)" d="M110.188 139.824 106.578 151.062H104.16L100.488 139.824H103.199L105.184 147.078C105.336 147.621 105.426 148.137 105.453 148.621H105.496C105.562 148.219 105.66 147.703 105.785 147.078L107.809 139.824H110.188" fill="#000000"/>
<path transform="matrix(1,0,0,1,0,-234.905)" d="M120.84 145.367 113.957 146.367C114.164 148.449 115.188 149.488 117.02 149.488 118.105 149.488 119.051 149.285 119.855 148.875L120.465 150.477C119.504 151.008 118.266 151.27 116.754 151.27 115.137 151.27 113.867 150.762 112.934 149.746 112.004 148.734 111.535 147.289 111.535 145.414 111.535 143.594 111.965 142.172 112.82 141.152 113.676 140.133 114.844 139.621 116.336 139.621 117.836 139.621 118.973 140.109 119.754 141.09 120.531 142.066 120.891 143.492 120.84 145.367ZM118.465 144.371C118.465 142.246 117.723 141.18 116.246 141.18 115.469 141.18 114.867 141.492 114.449 142.121 113.992 142.801 113.777 143.789 113.805 145.078L118.465 144.371" fill="#000000"/>
<path transform="matrix(1,0,0,1,0,-234.905)" d="M128.562 139.633 128.062 141.492C127.688 141.367 127.297 141.305 126.891 141.305 126.406 141.305 126.004 141.395 125.68 141.578V151.062H123.141V140.426C124.379 139.828 126.188 139.562 128.562 139.633" fill="#000000"/>
<path transform="matrix(1,0,0,1,0,-234.905)" d="M136.668 147.836C136.668 148.777 136.297 149.586 135.562 150.254 134.824 150.922 133.859 151.254 132.664 151.254 131.383 151.254 130.348 150.984 129.555 150.441L130.223 148.812C130.762 149.246 131.465 149.465 132.328 149.465 132.844 149.465 133.262 149.312 133.582 149.012 133.898 148.719 134.059 148.336 134.059 147.879 134.059 147.406 133.934 147.031 133.688 146.762 133.434 146.492 133.012 146.246 132.414 146.023 130.707 145.367 129.852 144.32 129.852 142.871 129.852 141.957 130.18 141.184 130.84 140.559 131.504 139.934 132.359 139.621 133.414 139.621 134.551 139.621 135.523 139.887 136.328 140.41L135.703 141.891C135.191 141.473 134.594 141.262 133.914 141.262 133.414 141.262 133.02 141.406 132.734 141.691 132.453 141.977 132.309 142.328 132.309 142.742 132.309 143.48 132.863 144.07 133.977 144.516 135.77 145.242 136.668 146.344 136.668 147.836" fill="#000000"/>
<path transform="matrix(1,0,0,1,0,-234.905)" d="M141.641 136.629C141.641 136.977 141.504 137.273 141.234 137.516 140.965 137.762 140.633 137.883 140.242 137.883 139.852 137.883 139.523 137.762 139.254 137.516 138.98 137.273 138.844 136.977 138.844 136.629 138.844 136.281 138.98 135.984 139.254 135.734 139.523 135.484 139.852 135.355 140.242 135.355 140.633 135.355 140.965 135.48 141.234 135.723 141.504 135.969 141.641 136.27 141.641 136.629ZM141.508 151.062H138.969V139.824H141.508V151.062" fill="#000000"/>
<path transform="matrix(1,0,0,1,0,-234.905)" d="M153.051 150.457C152.078 150.996 150.773 151.27 149.133 151.27 147.48 151.27 146.191 150.766 145.277 149.766 144.359 148.766 143.902 147.367 143.902 145.574 143.902 143.766 144.359 142.328 145.277 141.258 146.168 140.23 147.348 139.715 148.824 139.715 149.477 139.715 150.039 139.785 150.512 139.93V135.391H153.051ZM150.512 149.391V141.301C150.18 141.203 149.805 141.152 149.387 141.152 147.41 141.152 146.426 142.578 146.426 145.426 146.426 148.234 147.352 149.641 149.199 149.641 149.809 149.641 150.25 149.555 150.512 149.391" fill="#000000"/>
<path transform="matrix(1,0,0,1,0,-234.905)" d="M163.875 150.457C162.859 150.996 161.508 151.27 159.809 151.27 156.754 151.27 155.227 150.129 155.227 147.852 155.227 146.492 155.844 145.469 157.082 144.789 158.055 144.262 159.523 143.902 161.5 143.707V143.102C161.5 141.867 160.754 141.25 159.27 141.25 158.34 141.25 157.402 141.477 156.457 141.93L155.871 140.473C157.039 139.906 158.324 139.621 159.727 139.621 162.492 139.621 163.875 140.914 163.875 143.496ZM161.5 149.543V144.914C160.168 145.078 159.223 145.336 158.672 145.684 157.977 146.117 157.629 146.812 157.629 147.77 157.629 149.16 158.414 149.855 159.98 149.855 160.574 149.855 161.082 149.754 161.5 149.543" fill="#000000"/>
<path transform="matrix(1,0,0,1,0,-234.905)" d="M175.32 150.457C174.348 150.996 173.043 151.27 171.402 151.27 169.75 151.27 168.465 150.766 167.547 149.766 166.629 148.766 166.172 147.367 166.172 145.574 166.172 143.766 166.629 142.328 167.547 141.258 168.438 140.23 169.617 139.715 171.094 139.715 171.746 139.715 172.309 139.785 172.781 139.93V135.391H175.32ZM172.781 149.391V141.301C172.449 141.203 172.074 141.152 171.656 141.152 169.684 141.152 168.695 142.578 168.695 145.426 168.695 148.234 169.621 149.641 171.469 149.641 172.082 149.641 172.52 149.555 172.781 149.391" fill="#000000"/>
<path transform="matrix(1,0,0,1,0,-234.905)" d="M72.199 135.418H74.906V147.5C74.906 148.828 75.617 149.492 77.051 149.492 77.73 149.492 78.348 149.383 78.91 149.16V135.418H81.613V150.336C80.391 150.91 78.832 151.199 76.941 151.199 75.273 151.199 74.039 150.828 73.242 150.094 72.547 149.473 72.199 148.621 72.199 147.543V135.418" fill="#000000"/>
<path transform="matrix(1,0,0,1,0,-234.905)" d="M0 233.992H219.621V321.84H0Z" fill="#000000"/>
<path transform="matrix(1,0,0,1,0,-234.905)" d="M60.41 300.07C50.68 306.379 40.574 306.039 40.574 306.039 40.574 306.039 40.297 304.75 40.406 302.527 40.52 300.301 41.73 300.93 42.609 299.172 42.926 298.535 43.203 298.094 43.699 296.602 43.719 296.539 43.117 285.887 42.965 281.367 42.883 278.934 42.426 274.867 41.891 270.918 41.574 268.574 40.859 266.723 40.531 264.496 40.055 261.285 39.504 257.664 39.504 257.664 39.105 258.688 38.539 262.512 37.969 266.832 37.695 268.902 37.422 271.086 37.164 273.129 36.625 277.453 35.273 289.035 35.07 289.66 34.762 290.613 34.727 289.41 34.727 289.41 34.727 289.41 35.527 277.266 35.77 271.938 35.887 269.332 36.086 266.473 36.406 263.727 36.652 261.664 36.969 259.668 37.379 257.895 37.379 257.895 38.77 253.695 39.211 253.609 39.656 253.527 41.258 256.258 41.801 258.688 43.027 264.176 43.754 264.879 44.688 270.645 45.578 276.121 46.391 280.703 46.496 281.453 46.898 284.172 46.699 292.652 46.016 296.027 45.852 296.949 45.801 297.289 45.199 297.898 43.789 299.324 42.785 301.027 42.785 302.137 42.785 303.25 42.602 303.23 42.863 303.875 42.863 303.875 44.727 306.656 55.414 300.285 55.414 300.285 58.758 298.535 58.758 294.672V255.602C58.758 255.602 48.156 252.02 39.992 252.02 31.828 252.02 21.602 255.594 21.602 255.594V294.496C21.602 296.891 21.953 301.383 25.371 302.914 25.371 302.914 16.266 299.797 16.266 294.449V252.289C16.266 252.289 30.164 249.73 39.996 249.73 49.832 249.73 63.977 252.289 63.977 252.289 63.977 252.289 63.977 290.863 63.977 294.5 63.977 298.133 60.41 300.07 60.41 300.07" fill="#ffffff"/>
<path transform="matrix(1,0,0,1,0,-234.905)" d="M192.5 267.418C191.527 267.957 190.223 268.23 188.582 268.23 186.926 268.23 185.641 267.73 184.727 266.727 183.809 265.727 183.352 264.328 183.352 262.535 183.352 260.727 183.809 259.289 184.727 258.219 185.617 257.191 186.797 256.676 188.273 256.676 188.926 256.676 189.488 256.746 189.965 256.891V252.352H192.5ZM189.965 266.348V258.262C189.629 258.164 189.254 258.113 188.836 258.113 186.863 258.113 185.875 259.539 185.875 262.387 185.875 265.195 186.797 266.602 188.648 266.602 189.258 266.602 189.695 266.516 189.965 266.348" fill="#ffffff"/>
<path transform="matrix(1,0,0,1,0,-234.905)" d="M204.098 262.328 197.215 263.328C197.426 265.41 198.449 266.449 200.281 266.449 201.367 266.449 202.312 266.246 203.117 265.836L203.723 267.438C202.762 267.965 201.527 268.23 200.012 268.23 198.398 268.23 197.129 267.723 196.195 266.707 195.266 265.695 194.797 264.25 194.797 262.375 194.797 260.555 195.227 259.133 196.078 258.113 196.934 257.09 198.105 256.582 199.594 256.582 201.094 256.582 202.234 257.07 203.012 258.051 203.793 259.027 204.152 260.453 204.098 262.328ZM201.723 261.332C201.723 259.207 200.984 258.141 199.508 258.141 198.727 258.141 198.129 258.453 197.715 259.082 197.254 259.762 197.035 260.75 197.066 262.039L201.723 261.332" fill="#ffffff"/>
<path transform="matrix(1,0,0,1,0,-234.905)" d="M72.23 273.34H76.218V297.996H72.23Z" fill="#ffffff"/>
<path transform="matrix(1,0,0,1,0,-234.905)" d="M94.617 289.203C94.617 291.926 94.016 294.094 92.82 295.707 91.512 297.449 89.668 298.316 87.297 298.316 84.922 298.316 83.082 297.449 81.773 295.707 80.574 294.094 79.977 291.926 79.977 289.203 79.977 286.461 80.574 284.281 81.773 282.672 83.082 280.93 84.922 280.059 87.297 280.059 89.691 280.059 91.531 280.93 92.82 282.672 94.016 284.281 94.617 286.461 94.617 289.203ZM90.66 289.176C90.66 284.773 89.539 282.574 87.297 282.574 85.051 282.574 83.93 284.773 83.93 289.176 83.93 293.465 85.051 295.609 87.297 295.609 89.539 295.609 90.66 293.465 90.66 289.176" fill="#ffffff"/>
<path transform="matrix(1,0,0,1,0,-234.905)" d="M108.285 292.93C108.285 294.41 107.711 295.672 106.555 296.719 105.398 297.762 103.887 298.285 102.012 298.285 100.004 298.285 98.383 297.863 97.141 297.016L98.184 294.469C99.035 295.145 100.137 295.484 101.488 295.484 102.297 295.484 102.949 295.25 103.449 294.781 103.949 294.312 104.203 293.719 104.203 293 104.203 292.258 104.008 291.676 103.613 291.25 103.223 290.828 102.559 290.438 101.621 290.09 98.941 289.066 97.602 287.422 97.602 285.156 97.602 283.719 98.121 282.508 99.156 281.527 100.188 280.547 101.531 280.059 103.188 280.059 104.973 280.059 106.496 280.473 107.758 281.301L106.781 283.621C105.977 282.965 105.039 282.637 103.977 282.637 103.191 282.637 102.578 282.859 102.133 283.309 101.688 283.754 101.465 284.305 101.465 284.957 101.465 286.113 102.336 287.035 104.074 287.734 106.883 288.867 108.285 290.598 108.285 292.93" fill="#ffffff"/>
<path transform="matrix(1,0,0,1,0,-234.905)" d="M137.703 297.996H133.051L131.168 291.715H123.285L121.332 297.996H117.281L125.379 273.555H129.641ZM130.527 289.086 128.008 280.477C127.652 279.27 127.438 278.285 127.367 277.527H127.297C127.18 278.164 126.953 279.148 126.621 280.477L123.992 289.086H130.527" fill="#ffffff"/>
<path transform="matrix(1,0,0,1,0,-234.905)" d="M154.102 297.996H150.113V285.516C150.113 283.555 149.059 282.574 146.949 282.574 145.945 282.574 145.031 282.734 144.203 283.062V297.996H140.215V281.332C142.023 280.484 144.32 280.059 147.109 280.059 149.57 280.059 151.391 280.602 152.566 281.691 153.59 282.605 154.102 283.859 154.102 285.449V297.996" fill="#ffffff"/>
<path transform="matrix(1,0,0,1,0,-234.905)" d="M172.078 297.043C170.555 297.895 168.504 298.316 165.934 298.316 163.34 298.316 161.324 297.535 159.883 295.965 158.445 294.398 157.727 292.207 157.727 289.398 157.727 286.566 158.445 284.312 159.883 282.637 161.281 281.023 163.133 280.219 165.441 280.219 166.465 280.219 167.348 280.328 168.09 280.551V273.422H172.078ZM168.09 295.379V282.707C167.566 282.555 166.977 282.477 166.324 282.477 163.23 282.477 161.684 284.711 161.684 289.172 161.684 293.574 163.133 295.77 166.031 295.77 166.988 295.77 167.676 295.641 168.09 295.379" fill="#ffffff"/>
<path transform="matrix(1,0,0,1,0,-234.905)" d="M190.227 289.078 179.441 290.645C179.766 293.914 181.367 295.547 184.242 295.547 185.941 295.547 187.426 295.223 188.688 294.566L189.637 297.078C188.133 297.906 186.195 298.316 183.82 298.316 181.293 298.316 179.297 297.523 177.84 295.934 176.379 294.344 175.648 292.078 175.648 289.141 175.648 286.285 176.32 284.059 177.66 282.461 179 280.859 180.836 280.059 183.164 280.059 185.52 280.059 187.305 280.828 188.527 282.363 189.746 283.898 190.312 286.137 190.227 289.078ZM186.492 287.508C186.492 284.176 185.34 282.508 183.027 282.508 181.809 282.508 180.871 283 180.219 283.98 179.5 285.047 179.164 286.594 179.207 288.621L186.492 287.508" fill="#ffffff"/>
<path transform="matrix(1,0,0,1,0,-234.905)" d="M203.93 292.93C203.93 294.41 203.352 295.672 202.195 296.719 201.039 297.762 199.527 298.285 197.652 298.285 195.648 298.285 194.023 297.863 192.781 297.016L193.824 294.469C194.676 295.145 195.777 295.484 197.129 295.484 197.938 295.484 198.59 295.25 199.09 294.781 199.594 294.312 199.844 293.719 199.844 293 199.844 292.258 199.648 291.676 199.258 291.25 198.863 290.828 198.199 290.438 197.262 290.09 194.586 289.066 193.242 287.422 193.242 285.156 193.242 283.719 193.762 282.508 194.797 281.527 195.828 280.547 197.176 280.059 198.828 280.059 200.613 280.059 202.137 280.473 203.398 281.301L202.422 283.621C201.617 282.965 200.68 282.637 199.617 282.637 198.836 282.637 198.219 282.859 197.773 283.309 197.328 283.754 197.105 284.305 197.105 284.957 197.105 286.113 197.977 287.035 199.715 287.734 202.523 288.867 203.93 290.598 203.93 292.93" fill="#ffffff"/>
<path transform="matrix(1,0,0,1,0,-234.905)" d="M93.27 268.059H90.73V260.094C90.73 258.844 90.059 258.215 88.711 258.215 88.07 258.215 87.484 258.32 86.957 258.531V268.059H84.418V257.43C85.574 256.887 87.035 256.613 88.812 256.613 90.383 256.613 91.543 256.965 92.289 257.656 92.945 258.242 93.27 259.039 93.27 260.055V268.059" fill="#ffffff"/>
<path transform="matrix(1,0,0,1,0,-234.905)" d="M98.746 253.625C98.746 253.973 98.609 254.27 98.34 254.512 98.066 254.758 97.738 254.879 97.348 254.879 96.961 254.879 96.629 254.758 96.355 254.512 96.086 254.27 95.953 253.973 95.953 253.625 95.953 253.277 96.086 252.977 96.355 252.727 96.629 252.477 96.961 252.352 97.348 252.352 97.738 252.352 98.066 252.473 98.34 252.719 98.609 252.961 98.746 253.262 98.746 253.625ZM98.613 268.059H96.074V256.82H98.613V268.059" fill="#ffffff"/>
<path transform="matrix(1,0,0,1,0,-234.905)" d="M110.188 256.82 106.578 268.059H104.16L100.488 256.82H103.199L105.184 264.074C105.336 264.617 105.426 265.129 105.453 265.617H105.496C105.562 265.211 105.66 264.699 105.785 264.074L107.809 256.82H110.188" fill="#ffffff"/>
<path transform="matrix(1,0,0,1,0,-234.905)" d="M120.84 262.363 113.957 263.359C114.164 265.445 115.188 266.484 117.02 266.484 118.105 266.484 119.051 266.281 119.855 265.871L120.465 267.473C119.504 268 118.266 268.262 116.754 268.262 115.137 268.262 113.867 267.754 112.934 266.742 112.004 265.727 111.535 264.285 111.535 262.406 111.535 260.586 111.965 259.168 112.82 258.148 113.676 257.125 114.844 256.613 116.336 256.613 117.836 256.613 118.973 257.105 119.754 258.082 120.531 259.062 120.891 260.488 120.84 262.363ZM118.465 261.367C118.465 259.238 117.723 258.176 116.246 258.176 115.469 258.176 114.867 258.488 114.449 259.113 113.992 259.797 113.777 260.781 113.805 262.074L118.465 261.367" fill="#ffffff"/>
<path transform="matrix(1,0,0,1,0,-234.905)" d="M128.562 256.629 128.062 258.488C127.688 258.363 127.297 258.301 126.891 258.301 126.406 258.301 126.004 258.391 125.68 258.57V268.059H123.141V257.422C124.379 256.824 126.188 256.559 128.562 256.629" fill="#ffffff"/>
<path transform="matrix(1,0,0,1,0,-234.905)" d="M136.668 264.828C136.668 265.773 136.297 266.582 135.562 267.25 134.824 267.918 133.859 268.25 132.664 268.25 131.383 268.25 130.348 267.977 129.555 267.434L130.223 265.809C130.762 266.242 131.465 266.457 132.328 266.457 132.844 266.457 133.262 266.309 133.582 266.008 133.898 265.711 134.059 265.332 134.059 264.871 134.059 264.398 133.934 264.027 133.688 263.758 133.434 263.488 133.012 263.238 132.414 263.016 130.707 262.363 129.852 261.312 129.852 259.867 129.852 258.949 130.18 258.18 130.84 257.555 131.504 256.926 132.359 256.613 133.414 256.613 134.551 256.613 135.523 256.879 136.328 257.406L135.703 258.883C135.191 258.465 134.594 258.258 133.914 258.258 133.414 258.258 133.02 258.398 132.734 258.684 132.453 258.969 132.309 259.32 132.309 259.738 132.309 260.477 132.863 261.066 133.977 261.512 135.77 262.234 136.668 263.34 136.668 264.828" fill="#ffffff"/>
<path transform="matrix(1,0,0,1,0,-234.905)" d="M141.641 253.625C141.641 253.973 141.504 254.27 141.234 254.512 140.965 254.758 140.633 254.879 140.242 254.879 139.852 254.879 139.523 254.758 139.254 254.512 138.98 254.27 138.844 253.973 138.844 253.625 138.844 253.277 138.98 252.977 139.254 252.727 139.523 252.477 139.852 252.352 140.242 252.352 140.633 252.352 140.965 252.473 141.234 252.719 141.504 252.961 141.641 253.262 141.641 253.625ZM141.508 268.059H138.969V256.82H141.508V268.059" fill="#ffffff"/>
<path transform="matrix(1,0,0,1,0,-234.905)" d="M153.051 267.449C152.078 267.992 150.773 268.262 149.133 268.262 147.48 268.262 146.191 267.762 145.277 266.762 144.359 265.762 143.902 264.363 143.902 262.57 143.902 260.762 144.359 259.324 145.277 258.254 146.168 257.223 147.348 256.711 148.824 256.711 149.477 256.711 150.039 256.781 150.512 256.922V252.387H153.051ZM150.512 266.383V258.297C150.18 258.199 149.805 258.148 149.387 258.148 147.41 258.148 146.426 259.574 146.426 262.422 146.426 265.23 147.352 266.633 149.199 266.633 149.809 266.633 150.25 266.551 150.512 266.383" fill="#ffffff"/>
<path transform="matrix(1,0,0,1,0,-234.905)" d="M163.875 267.449C162.859 267.992 161.508 268.262 159.809 268.262 156.754 268.262 155.227 267.125 155.227 264.848 155.227 263.488 155.844 262.465 157.082 261.785 158.055 261.258 159.523 260.895 161.5 260.703V260.098C161.5 258.863 160.754 258.246 159.27 258.246 158.34 258.246 157.402 258.473 156.457 258.926L155.871 257.469C157.039 256.898 158.324 256.613 159.727 256.613 162.492 256.613 163.875 257.906 163.875 260.492ZM161.5 266.539V261.906C160.168 262.074 159.223 262.332 158.672 262.68 157.977 263.109 157.629 263.805 157.629 264.766 157.629 266.156 158.414 266.852 159.98 266.852 160.574 266.852 161.082 266.746 161.5 266.539" fill="#ffffff"/>
<path transform="matrix(1,0,0,1,0,-234.905)" d="M175.32 267.449C174.348 267.992 173.043 268.262 171.402 268.262 169.75 268.262 168.465 267.762 167.547 266.762 166.629 265.762 166.172 264.363 166.172 262.57 166.172 260.762 166.629 259.324 167.547 258.254 168.438 257.223 169.617 256.711 171.094 256.711 171.746 256.711 172.309 256.781 172.781 256.922V252.387H175.32ZM172.781 266.383V258.297C172.449 258.199 172.074 258.148 171.656 258.148 169.684 258.148 168.695 259.574 168.695 262.422 168.695 265.23 169.621 266.633 171.469 266.633 172.082 266.633 172.52 266.551 172.781 266.383" fill="#ffffff"/>
<path transform="matrix(1,0,0,1,0,-234.905)" d="M72.199 252.41H74.906V264.496C74.906 265.824 75.617 266.488 77.051 266.488 77.73 266.488 78.348 266.379 78.91 266.156V252.41H81.613V267.332C80.391 267.906 78.832 268.195 76.941 268.195 75.273 268.195 74.039 267.824 73.242 267.086 72.547 266.465 72.199 265.617 72.199 264.539V252.41" fill="#ffffff"/>
</g>
</g>
</g>
</svg>
